<svg width="30" height="21" viewBox="0 0 30 21" fill="none" xmlns="http://www.w3.org/2000/svg">
<path d="M1.28906 12C1.09375 12 0.996094 11.8926 0.996094 11.6777V3.91992C0.996094 3.70508 1.09375 3.59766 1.28906 3.59766H6.06445C6.2793 3.59766 6.38672 3.68555 6.38672 3.86133V4.29492C6.38672 4.4707 6.2793 4.55859 6.06445 4.55859H2.12109V7.33594H5.56055C5.77539 7.33594 5.88281 7.42383 5.88281 7.59961V8.0332C5.88281 8.20898 5.77539 8.29688 5.56055 8.29688H2.12109V11.6777C2.12109 11.8926 2.02344 12 1.82812 12H1.28906ZM7.92773 12C7.75195 12 7.66406 11.9121 7.66406 11.7363V6.11133C7.66406 5.93555 7.75195 5.84766 7.92773 5.84766H8.41992C8.5957 5.84766 8.68359 5.93555 8.68359 6.11133V6.81445H8.70703C8.89453 6.46289 9.11523 6.19727 9.36914 6.01758C9.62305 5.83789 9.93945 5.74805 10.3184 5.74805C10.5684 5.74805 10.7441 5.76953 10.8457 5.8125C10.9355 5.84766 10.9688 5.90625 10.9453 5.98828L10.8105 6.46875C10.791 6.53906 10.7402 6.56641 10.6582 6.55078C10.5215 6.52344 10.3926 6.50977 10.2715 6.50977C9.81445 6.50977 9.4375 6.7168 9.14062 7.13086C8.84375 7.54102 8.69531 8.10156 8.69531 8.8125V11.7363C8.69531 11.9121 8.60742 12 8.43164 12H7.92773ZM11.5605 8.92383C11.5605 7.95508 11.8027 7.18359 12.2871 6.60938C12.7715 6.03516 13.4648 5.74805 14.3672 5.74805C15.1172 5.74805 15.7383 6.01172 16.2305 6.53906C16.7266 7.0625 16.9746 7.90039 16.9746 9.05273C16.9746 9.22852 16.8945 9.31641 16.7344 9.31641H12.6504C12.7168 10.0703 12.9199 10.5957 13.2598 10.8926C13.5996 11.1855 13.9844 11.332 14.4141 11.332C14.8672 11.332 15.2148 11.2559 15.457 11.1035C15.6992 10.9512 15.877 10.8008 15.9902 10.6523C16.1152 10.4883 16.2363 10.457 16.3535 10.5586L16.6992 10.8574C16.7891 10.9355 16.7891 11.043 16.6992 11.1797C16.625 11.293 16.4121 11.4746 16.0605 11.7246C15.7129 11.9746 15.1641 12.0996 14.4141 12.0996C13.4375 12.0996 12.7168 11.8125 12.252 11.2383C11.791 10.6641 11.5605 9.89258 11.5605 8.92383ZM12.627 8.55469H15.9375C15.9219 8.00781 15.7812 7.5293 15.5156 7.11914C15.25 6.70508 14.8594 6.49805 14.3438 6.49805C13.8906 6.49805 13.5059 6.65039 13.1895 6.95508C12.873 7.25586 12.6855 7.78906 12.627 8.55469ZM18.0879 11.4258C17.9668 11.3125 17.9414 11.207 18.0117 11.1094L18.2754 10.7402C18.3613 10.623 18.4883 10.6289 18.6562 10.7578C18.8867 10.9336 19.1426 11.0742 19.4238 11.1797C19.709 11.2852 20.0332 11.3379 20.3965 11.3379C20.6113 11.3379 20.8027 11.3125 20.9707 11.2617C21.1387 11.207 21.2852 11.1074 21.4102 10.9629C21.5391 10.8184 21.6035 10.625 21.6035 10.3828C21.6035 10.2422 21.5723 10.1094 21.5098 9.98438C21.4512 9.85938 21.3574 9.75977 21.2285 9.68555C21.1035 9.60742 20.9805 9.54688 20.8594 9.50391C20.6602 9.42969 20.4609 9.36914 20.2617 9.32227C20.0664 9.27148 19.8086 9.19531 19.4883 9.09375C19.2734 9.02734 19.0703 8.93359 18.8789 8.8125C18.6875 8.6875 18.5195 8.51953 18.375 8.30859C18.2344 8.09766 18.1641 7.80664 18.1641 7.43555C18.1641 7.05664 18.2793 6.73047 18.5098 6.45703C18.7402 6.18359 19.0293 5.99805 19.377 5.90039C19.7246 5.79883 20.0625 5.74805 20.3906 5.74805C20.875 5.74805 21.2637 5.80469 21.5566 5.91797C21.8535 6.02734 22.1094 6.1582 22.3242 6.31055C22.4492 6.40039 22.4668 6.50391 22.377 6.62109L22.1133 6.97266C22.0312 7.08594 21.9043 7.08203 21.7324 6.96094C21.5879 6.85938 21.3828 6.76367 21.1172 6.67383C20.8516 6.58398 20.6191 6.53906 20.4199 6.53906C20.1738 6.53906 19.9629 6.56641 19.7871 6.62109C19.6113 6.67578 19.4688 6.76953 19.3594 6.90234C19.25 7.03516 19.1953 7.19141 19.1953 7.37109C19.1953 7.50781 19.2168 7.63086 19.2598 7.74023C19.3027 7.8457 19.3828 7.94336 19.5 8.0332C19.6172 8.12305 19.7812 8.19531 19.9922 8.25C20.3203 8.33594 20.6191 8.41406 20.8887 8.48438C21.1621 8.55469 21.4082 8.64062 21.627 8.74219C21.9121 8.875 22.1309 9.02148 22.2832 9.18164C22.4395 9.3418 22.5469 9.51562 22.6055 9.70312C22.6641 9.88672 22.6934 10.0918 22.6934 10.3184C22.6934 10.7363 22.5684 11.0898 22.3184 11.3789C22.0723 11.668 21.7969 11.8613 21.4922 11.959C21.1875 12.0527 20.8203 12.0996 20.3906 12.0996C19.8086 12.0996 19.3086 12.0176 18.8906 11.8535C18.4766 11.6855 18.209 11.543 18.0879 11.4258ZM24.123 12C23.9473 12 23.8594 11.9121 23.8594 11.7363V3.61523C23.8594 3.43945 23.9473 3.35156 24.123 3.35156H24.627C24.8027 3.35156 24.8906 3.43945 24.8906 3.61523V6.22852C24.8906 6.3457 24.8867 6.46289 24.8789 6.58008H24.9023C25.1562 6.29883 25.4297 6.08984 25.7227 5.95312C26.0156 5.81641 26.3809 5.74805 26.8184 5.74805C27.5293 5.74805 28.0391 5.94922 28.3477 6.35156C28.6602 6.75 28.8164 7.29688 28.8164 7.99219V11.7363C28.8164 11.9121 28.7285 12 28.5527 12H28.0488C27.873 12 27.7852 11.9121 27.7852 11.7363V8.27344C27.7852 7.50781 27.6582 7.02344 27.4043 6.82031C27.1504 6.61328 26.8281 6.50977 26.4375 6.50977C25.9297 6.50977 25.5449 6.66211 25.2832 6.9668C25.0215 7.26758 24.8906 7.78516 24.8906 8.51953V11.7363C24.8906 11.9121 24.8027 12 24.627 12H24.123Z" fill="#47A10F"/>
<path d="M15.24 11.716V10.6H18.54V11.716H17.46V19H16.32V11.716H15.24ZM20.1052 11.404L20.2252 12.52H19.0852V11.404H20.1052ZM20.2252 13V19H19.0852V14.116H18.9052L19.0252 13H20.2252ZM23.9035 19H22.7635V14.176C22.7635 14.136 22.7435 14.116 22.7035 14.116H22.0675V19H20.9275V14.116H20.6395L20.7595 13H22.0675V13.468L22.3675 13H22.6915C22.9555 13 23.1835 13.056 23.3755 13.168C23.5675 13.28 23.7075 13.432 23.7955 13.624L24.2035 13H24.5275C24.8955 13 25.1875 13.104 25.4035 13.312C25.6275 13.52 25.7395 13.788 25.7395 14.116V17.884H26.0275L25.9075 19H24.5995V14.176C24.5995 14.136 24.5795 14.116 24.5395 14.116H23.9035V19ZM26.3845 17.932V14.068C26.3845 13.732 26.4885 13.464 26.6965 13.264C26.9045 13.056 27.1765 12.952 27.5125 12.952H28.2565C28.5925 12.952 28.8645 13.056 29.0725 13.264C29.2805 13.464 29.3845 13.732 29.3845 14.068V15.544H28.2445V14.128C28.2445 14.088 28.2245 14.068 28.1845 14.068H27.5845C27.5445 14.068 27.5245 14.088 27.5245 14.128V15.544H29.3845V16.66H27.5245V17.872C27.5245 17.912 27.5445 17.932 27.5845 17.932H28.1845C28.2245 17.932 28.2445 17.916 28.2445 17.884V17.224H29.3845V17.932C29.3845 18.268 29.2805 18.54 29.0725 18.748C28.8645 18.948 28.5925 19.048 28.2565 19.048H27.5125C27.1765 19.048 26.9045 18.948 26.6965 18.748C26.4885 18.54 26.3845 18.268 26.3845 17.932Z" fill="#F08B59"/>
<path d="M8.44653 18.0661C8.04 18.0661 7.6751 17.9878 7.35184 17.831C7.03347 17.6694 6.78367 17.449 6.60245 17.1698C6.42122 16.8857 6.33061 16.5722 6.33061 16.2294V14.6131C6.33061 14.2702 6.42122 13.9616 6.60245 13.6873C6.78367 13.4082 7.03347 13.1902 7.35184 13.0335C7.6751 12.8718 8.04 12.791 8.44653 12.791C8.85796 12.791 9.22286 12.8718 9.54122 13.0335C9.86449 13.1902 10.1167 13.4082 10.298 13.6873C10.4792 13.9616 10.5698 14.2702 10.5698 14.6131V16.2294C10.5698 16.5722 10.4792 16.8857 10.298 17.1698C10.1167 17.449 9.86449 17.6694 9.54122 17.831C9.21796 17.9878 8.85306 18.0661 8.44653 18.0661ZM8.44653 17.4637C8.90204 17.4637 9.25714 17.351 9.51184 17.1257C9.76653 16.9004 9.89388 16.5992 9.89388 16.222V14.6278C9.89388 14.2506 9.76653 13.9518 9.51184 13.7314C9.25714 13.5061 8.90204 13.3935 8.44653 13.3935C7.99592 13.3935 7.64327 13.5061 7.38857 13.7314C7.13388 13.9518 7.00653 14.2506 7.00653 14.6278V16.222C7.00653 16.5992 7.13388 16.9004 7.38857 17.1257C7.64327 17.351 7.99592 17.4637 8.44653 17.4637ZM11.4146 14.8041C11.4146 14.4416 11.6204 14.2604 12.0318 14.2604V14.7306C11.9877 14.7747 11.9363 14.8408 11.8775 14.929L11.9069 14.9584C12.0538 14.7527 12.2448 14.5861 12.4799 14.4588C12.715 14.3265 12.9697 14.2604 13.244 14.2604C13.6408 14.2604 13.9542 14.378 14.1844 14.6131C14.4146 14.8482 14.5297 15.1518 14.5297 15.5241V17.5959C14.5297 17.7576 14.4759 17.8776 14.3681 17.9559C14.2652 18.0294 14.1061 18.0661 13.8906 18.0661V15.5902C13.8906 15.3551 13.8244 15.169 13.6922 15.0318C13.5599 14.8947 13.3591 14.8261 13.0897 14.8261C12.9085 14.8261 12.7371 14.8653 12.5755 14.9437C12.4187 15.0171 12.2914 15.12 12.1934 15.2522C12.1004 15.3796 12.0538 15.5192 12.0538 15.671V17.5959C12.0538 17.7576 11.9999 17.8776 11.8922 17.9559C11.7893 18.0294 11.6301 18.0661 11.4146 18.0661V14.8041Z" fill="#F7D124"/>
</svg>
