<svg width="41" height="30" viewBox="0 0 41 30" fill="none" xmlns="http://www.w3.org/2000/svg">
<path d="M1.8375 13.6181L1.22063 4.96875L7.00875 4.785L6.96938 5.66437L4.2 5.9925L3.81938 9.10312L6.26063 9.07687L6.32625 10.2581L3.70125 10.0481L3.28125 13.5525L1.8375 13.6181ZM9.05912 13.6969L8.38975 7.18687L11.1985 6.75375L10.936 8.85375H11.0279C11.3604 8.1275 11.7541 7.55875 12.2091 7.1475C12.6729 6.7275 13.1716 6.49562 13.7054 6.45187L13.3379 9.2475C13.1979 9.23 13.0622 9.21687 12.931 9.20812C12.8085 9.19062 12.686 9.18187 12.5635 9.18187C12.1872 9.18187 11.8635 9.265 11.5922 9.43125C11.3297 9.5975 11.111 9.895 10.936 10.3237C10.7697 10.7437 10.6385 11.3344 10.5422 12.0956L10.3585 13.5788L9.05912 13.6969ZM17.6918 13.815C17.0093 13.815 16.4055 13.7538 15.8805 13.6313C15.3555 13.5088 14.918 13.3119 14.568 13.0406C14.4893 12.6906 14.4324 12.3756 14.3974 12.0956C14.3712 11.8069 14.358 11.5356 14.358 11.2819C14.358 10.5031 14.4762 9.79 14.7124 9.1425C14.9574 8.495 15.268 7.93937 15.6443 7.47562C16.0205 7.00312 16.4099 6.65312 16.8124 6.42562C17.1712 6.56562 17.5343 6.73625 17.9018 6.9375C18.278 7.13 18.6237 7.3575 18.9387 7.62C19.2537 7.8825 19.5074 8.18 19.6999 8.5125C19.8924 8.83625 19.9887 9.195 19.9887 9.58875C19.9887 10 19.9143 10.3456 19.7655 10.6256C19.6255 10.8969 19.3674 11.1025 18.9912 11.2425C18.6149 11.3825 18.0724 11.4525 17.3637 11.4525C17.0662 11.4525 16.7774 11.4394 16.4974 11.4131C16.2262 11.3869 15.9899 11.3519 15.7887 11.3081C15.6224 11.7194 15.5393 12.1481 15.5393 12.5944C15.7405 12.6206 15.9593 12.6425 16.1955 12.66C16.4318 12.6687 16.6593 12.6731 16.878 12.6731C17.2893 12.6731 17.7093 12.6425 18.138 12.5812C18.5755 12.5112 19.013 12.3975 19.4505 12.24L19.8443 13.5131C19.4943 13.6269 19.1355 13.7056 18.768 13.7494C18.4005 13.7931 18.0418 13.815 17.6918 13.815ZM16.6024 10.7044C16.9349 10.7044 17.2674 10.6869 17.5999 10.6519C17.9412 10.6169 18.2387 10.5731 18.4924 10.5206C18.5187 10.3456 18.5318 10.1794 18.5318 10.0219C18.5318 9.70687 18.488 9.42687 18.4005 9.18187C18.3218 8.92812 18.2212 8.705 18.0987 8.5125C17.6087 8.83625 17.2018 9.1775 16.878 9.53625C16.563 9.895 16.2874 10.28 16.0512 10.6912C16.1387 10.7 16.2305 10.7044 16.3268 10.7044C16.423 10.7044 16.5149 10.7044 16.6024 10.7044ZM22.7998 14.9175L22.2223 14.1431C22.6335 13.9156 22.9091 13.7013 23.0491 13.5C23.1891 13.3075 23.2591 13.1062 23.2591 12.8962C23.2591 12.6687 23.1979 12.45 23.0754 12.24C22.9616 12.03 22.8173 11.82 22.6423 11.61C22.4673 11.3912 22.2923 11.1637 22.1173 10.9275C21.9423 10.6825 21.7935 10.42 21.671 10.14C21.5573 9.85125 21.5004 9.53187 21.5004 9.18187C21.5004 8.53437 21.6666 7.96125 21.9991 7.4625C22.3316 6.96375 22.756 6.51312 23.2723 6.11062L25.4248 7.55437C25.0048 7.82562 24.6548 8.12312 24.3748 8.44687C24.1035 8.77062 23.9679 9.125 23.9679 9.51C23.9679 9.7725 24.0248 10.0175 24.1385 10.245C24.261 10.4725 24.401 10.6956 24.5585 10.9144C24.7248 11.1244 24.8648 11.3431 24.9785 11.5706C25.101 11.7894 25.1623 12.0212 25.1623 12.2662C25.1623 12.8962 24.9479 13.4256 24.5191 13.8544C24.0904 14.2831 23.5173 14.6375 22.7998 14.9175ZM27.7997 13.6969L27.1303 4.53562L29.939 4.1025L29.4534 9.51H29.5715C29.9215 8.64375 30.3372 7.94812 30.8184 7.42312C31.3084 6.89812 31.8247 6.63562 32.3672 6.63562C32.5247 6.63562 32.6822 6.66187 32.8397 6.71437C33.0409 6.95937 33.2115 7.29625 33.3515 7.725C33.4915 8.145 33.6053 8.61312 33.6928 9.12937C33.7803 9.64562 33.8459 10.175 33.8897 10.7175C33.9334 11.2512 33.964 11.7631 33.9815 12.2531C33.999 12.7344 34.0078 13.15 34.0078 13.5L31.6453 13.6969C31.6453 12.8481 31.6365 12.1131 31.619 11.4919C31.6015 10.8706 31.5753 10.3019 31.5403 9.78562C31.514 9.26062 31.4747 8.73125 31.4222 8.1975C31.2559 8.25875 31.0634 8.3725 30.8447 8.53875C30.6347 8.705 30.4203 8.97625 30.2015 9.3525C29.9828 9.72875 29.7772 10.2581 29.5847 10.9406C29.3922 11.6144 29.2303 12.4937 29.099 13.5788L27.7997 13.6969Z" fill="#47A10F"/>
<path d="M20.176 21.928C19.96 22.552 19.74 23.152 19.516 23.728C19.292 24.304 19.104 24.74 18.952 25.036C18.808 25.34 18.68 25.548 18.568 25.66C18.456 25.772 18.34 25.848 18.22 25.888C18.108 25.928 17.992 25.944 17.872 25.936C17.76 25.928 17.644 25.92 17.524 25.912C16.852 25.808 16.644 25.324 16.9 24.46C17.068 23.772 17.204 23.212 17.308 22.78C17.412 22.34 17.496 21.98 17.56 21.7C17.632 21.412 17.692 21.176 17.74 20.992C17.788 20.8 17.84 20.612 17.896 20.428C17.952 20.244 18.02 20.036 18.1 19.804C18.188 19.572 18.3 19.264 18.436 18.88C18.132 18.92 17.86 18.888 17.62 18.784C17.268 18.632 17.124 18.304 17.188 17.8C17.22 17.568 17.344 17.352 17.56 17.152C17.672 17.048 17.804 16.936 17.956 16.816C18.268 16.568 18.888 16.304 19.816 16.024C20.776 15.736 21.6 15.6 22.288 15.616C22.472 15.584 22.66 15.608 22.852 15.688C23.052 15.76 23.212 15.86 23.332 15.988C23.452 16.116 23.512 16.256 23.512 16.408C23.52 16.56 23.424 16.696 23.224 16.816C23.128 16.88 23.06 16.988 23.02 17.14C22.98 17.284 22.936 17.44 22.888 17.608C22.84 17.768 22.768 17.916 22.672 18.052C22.584 18.188 22.44 18.268 22.24 18.292C22.136 18.348 21.988 18.388 21.796 18.412C21.612 18.436 21.488 18.456 21.424 18.472C21.368 18.48 21.336 18.5 21.328 18.532C21.184 18.956 21.012 19.472 20.812 20.08C20.612 20.68 20.4 21.296 20.176 21.928ZM18.556 18.748C18.54 18.748 18.532 18.752 18.532 18.76C18.532 18.76 18.54 18.76 18.556 18.76V18.748ZM23.6074 19.804C23.7114 19.54 23.9594 19.36 24.3514 19.264C24.7194 19.168 25.0634 19.18 25.3834 19.3C25.7114 19.428 25.8594 19.636 25.8274 19.924C25.7394 20.204 25.6274 20.548 25.4914 20.956C25.3634 21.356 25.2394 21.768 25.1194 22.192C24.7994 23.28 24.6154 24.048 24.5674 24.496C24.4474 25.216 24.2474 25.604 23.9674 25.66C23.8874 25.676 23.8114 25.688 23.7394 25.696C23.5634 25.704 23.4514 25.752 23.4034 25.84C23.3554 25.928 23.2754 25.992 23.1634 26.032C23.0514 26.08 22.9274 26.1 22.7914 26.092C22.6634 26.092 22.5314 26.06 22.3954 25.996C22.2594 25.94 22.1434 25.856 22.0474 25.744C21.8234 25.472 21.7794 25.108 21.9154 24.652C22.0434 23.78 22.3674 22.672 22.8874 21.328C23.1354 20.664 23.3754 20.156 23.6074 19.804ZM25.8754 18.004C25.4834 18.084 25.1634 18.06 24.9154 17.932C24.6754 17.804 24.5354 17.652 24.4954 17.476C24.4554 17.292 24.5114 17.104 24.6634 16.912C24.8394 16.672 25.1034 16.516 25.4554 16.444C25.6154 16.428 25.7314 16.42 25.8034 16.42C25.8754 16.42 25.9634 16.436 26.0674 16.468C26.3314 16.492 26.5034 16.608 26.5834 16.816C26.6954 16.992 26.7034 17.192 26.6074 17.416C26.5194 17.64 26.2754 17.836 25.8754 18.004ZM27.5469 19.78C27.5629 19.628 27.6589 19.504 27.8349 19.408C28.0109 19.312 28.2069 19.264 28.4229 19.264C28.6389 19.264 28.8469 19.316 29.0469 19.42C29.2549 19.516 29.3949 19.684 29.4669 19.924C30.1469 19.332 30.7669 19.104 31.3269 19.24C31.5189 19.28 31.6829 19.392 31.8189 19.576C32.2269 19.184 32.6789 18.928 33.1749 18.808C33.7989 18.784 34.2469 18.928 34.5189 19.24C34.5589 19.28 34.5989 19.324 34.6389 19.372C34.7509 19.492 34.8149 19.572 34.8309 19.612C34.9749 19.836 35.0149 20.352 34.9509 21.16C34.8629 22.208 34.6629 23.26 34.3509 24.316C34.1829 24.852 34.0309 25.128 33.8949 25.144C33.8149 25.16 33.7389 25.16 33.6669 25.144C33.6029 25.128 33.5429 25.116 33.4869 25.108C33.4389 25.108 33.4109 25.156 33.4029 25.252C33.2429 25.46 32.9989 25.564 32.6709 25.564C32.3509 25.564 32.0789 25.464 31.8549 25.264C31.6069 25.056 31.5189 24.812 31.5909 24.532C31.6709 24.244 31.7589 23.952 31.8549 23.656C31.9509 23.352 32.0549 23.04 32.1669 22.72C32.3589 22.16 32.5709 21.576 32.8029 20.968C32.6349 21.16 32.4069 21.524 32.1189 22.06C31.8309 22.588 31.6509 22.904 31.5789 23.008C31.4429 23.28 31.3309 23.496 31.2429 23.656C31.1549 23.808 31.0349 23.932 30.8829 24.028C30.7389 24.116 30.6029 24.172 30.4749 24.196C30.3549 24.22 30.2389 24.224 30.1269 24.208C29.8629 24.168 29.6749 24.056 29.5629 23.872C29.5389 23.808 29.5149 23.744 29.4909 23.68C29.4669 23.616 29.4469 23.528 29.4309 23.416C29.4069 23.168 29.4389 22.764 29.5269 22.204L29.5029 22.24C29.5989 22.144 29.6309 22.12 29.5989 22.168C29.2789 22.624 29.0869 22.916 29.0229 23.044C28.9589 23.172 28.8909 23.316 28.8189 23.476C28.7469 23.628 28.6629 23.808 28.5669 24.016C28.4709 24.216 28.3949 24.396 28.3389 24.556C28.2829 24.716 28.2149 24.872 28.1349 25.024C27.7749 25.648 27.1429 25.9 26.2389 25.78C26.0469 25.756 25.8829 25.708 25.7469 25.636C25.6109 25.572 25.5549 25.472 25.5789 25.336C25.6429 25.016 25.7909 24.484 26.0229 23.74C26.4789 22.268 26.7509 21.32 26.8389 20.896C26.8949 20.752 26.9429 20.604 26.9829 20.452C27.0309 20.3 27.0789 20.168 27.1269 20.056C27.2229 19.792 27.3629 19.7 27.5469 19.78ZM31.7109 22.744V22.768C31.7269 22.736 31.7269 22.728 31.7109 22.744ZM39.2661 23.224C39.1141 23.296 38.9661 23.352 38.8221 23.392C38.6781 23.432 38.5101 23.472 38.3181 23.512C37.8141 23.616 37.4501 23.676 37.2261 23.692C37.2501 23.772 37.3701 23.868 37.5861 23.98C37.7301 24.004 37.8861 23.984 38.0541 23.92C38.2301 23.848 38.4101 23.784 38.5941 23.728C38.7861 23.664 38.9701 23.628 39.1461 23.62C39.3301 23.612 39.5021 23.68 39.6621 23.824C39.7261 23.968 39.7781 24.052 39.8181 24.076C39.8581 24.1 39.8941 24.112 39.9261 24.112C39.9581 24.112 39.9941 24.124 40.0341 24.148C40.0741 24.172 40.1301 24.264 40.2021 24.424C40.2821 24.584 40.2621 24.736 40.1421 24.88C40.0301 25.024 39.8541 25.148 39.6141 25.252C39.3741 25.356 39.0941 25.44 38.7741 25.504C38.4541 25.568 38.1341 25.612 37.8141 25.636C37.0941 25.692 36.5461 25.636 36.1701 25.468C35.6261 25.284 35.2741 24.92 35.1141 24.376C34.9061 23.656 35.0221 22.816 35.4621 21.856C35.6621 21.408 35.9781 20.928 36.4101 20.416C36.7861 19.968 37.2061 19.644 37.6701 19.444C38.2061 19.212 38.7661 19.104 39.3501 19.12C39.9741 19.136 40.4061 19.408 40.6461 19.936C40.7661 20.216 40.7901 20.608 40.7181 21.112C40.5901 21.768 40.4221 22.232 40.2141 22.504C40.0061 22.768 39.6901 23.008 39.2661 23.224ZM38.5701 21.328C38.1461 21.24 37.8141 21.48 37.5741 22.048C37.5021 22.2 37.4461 22.36 37.4061 22.528C37.6781 22.56 37.9661 22.408 38.2701 22.072C38.3821 21.936 38.4661 21.8 38.5221 21.664C38.5781 21.52 38.5941 21.408 38.5701 21.328Z" fill="#F08B59"/>
<path d="M6.55102 16.2759C6.55102 15.8694 6.65633 15.5731 6.86694 15.3869C7.08245 15.2008 7.41306 15.1078 7.85878 15.1078H9.37225C9.81306 15.1078 10.1412 15.2008 10.3567 15.3869C10.5722 15.5731 10.68 15.8694 10.68 16.2759V19.9053C10.68 20.3069 10.5722 20.6008 10.3567 20.7869C10.1412 20.9731 9.81306 21.0661 9.37225 21.0661H7.85878C7.41306 21.0661 7.08245 20.9731 6.86694 20.7869C6.65633 20.6008 6.55102 20.3069 6.55102 19.9053V16.2759ZM7.58694 15.938C7.52327 15.938 7.49143 15.9698 7.49143 16.0335V20.1404C7.49143 20.2041 7.52327 20.2359 7.58694 20.2359H9.63674C9.70041 20.2359 9.73225 20.2041 9.73225 20.1404V16.0335C9.73225 15.9698 9.70041 15.938 9.63674 15.938H7.58694ZM13.9195 16.4376C14.2869 16.4376 14.5563 16.511 14.7277 16.658C14.8991 16.8049 14.9848 17.0645 14.9848 17.4367V21H14.0959V17.2604C14.0959 17.1918 14.064 17.1576 14.0004 17.1576H12.7146C12.6461 17.1576 12.6118 17.1918 12.6118 17.2604L12.6191 21H11.7375L11.7228 16.5037H12.5163L12.5824 16.9592C12.6804 16.6114 12.9522 16.4376 13.3979 16.4376H13.9195Z" fill="#DDB504"/>
</svg>
