<svg width="113" height="24" viewBox="0 0 113 24" fill="none" xmlns="http://www.w3.org/2000/svg">
<path d="M2.55208 18.1641L1.69531 6.15104L9.73438 5.89583L9.67969 7.11719L5.83333 7.57292L5.30469 11.8932L8.69531 11.8568L8.78646 13.4974L5.14062 13.2057L4.55729 18.0729L2.55208 18.1641ZM12.5821 18.2734L11.6524 9.23177L15.5535 8.63021L15.1889 11.5469H15.3165C15.7783 10.5382 16.3252 9.74826 16.9571 9.17708C17.6012 8.59375 18.2939 8.2717 19.0352 8.21094L18.5248 12.0938C18.3304 12.0694 18.142 12.0512 17.9597 12.0391C17.7896 12.0148 17.6194 12.0026 17.4493 12.0026C16.9267 12.0026 16.4771 12.1181 16.1003 12.349C15.7358 12.5799 15.4319 12.9931 15.1889 13.5885C14.958 14.1719 14.7757 14.9922 14.642 16.0495L14.3868 18.1094L12.5821 18.2734ZM24.5719 18.4375C23.624 18.4375 22.7855 18.3524 22.0563 18.1823C21.3271 18.0122 20.7195 17.7387 20.2334 17.362C20.124 16.8759 20.045 16.4384 19.9964 16.0495C19.9599 15.6484 19.9417 15.2717 19.9417 14.9193C19.9417 13.8377 20.1058 12.8472 20.4339 11.9479C20.7742 11.0486 21.2056 10.2769 21.7282 9.63281C22.2507 8.97656 22.7915 8.49045 23.3506 8.17448C23.8488 8.36892 24.3532 8.6059 24.8636 8.88542C25.3862 9.15278 25.8662 9.46875 26.3037 9.83333C26.7412 10.1979 27.0936 10.6111 27.361 11.0729C27.6283 11.5226 27.762 12.0208 27.762 12.5677C27.762 13.1389 27.6587 13.6189 27.4521 14.0078C27.2577 14.3845 26.8992 14.6701 26.3766 14.8646C25.854 15.059 25.1006 15.1563 24.1162 15.1563C23.703 15.1563 23.302 15.138 22.9131 15.1016C22.5363 15.0651 22.2082 15.0165 21.9287 14.9557C21.6978 15.5269 21.5823 16.1224 21.5823 16.7422C21.8618 16.7786 22.1657 16.809 22.4938 16.8333C22.8219 16.8455 23.1379 16.8516 23.4417 16.8516C24.0129 16.8516 24.5962 16.809 25.1917 16.724C25.7993 16.6267 26.407 16.4688 27.0146 16.25L27.5615 18.0182C27.0754 18.1762 26.5771 18.2856 26.0667 18.3464C25.5563 18.4071 25.058 18.4375 24.5719 18.4375ZM23.0589 14.1172C23.5207 14.1172 23.9825 14.0929 24.4443 14.0443C24.9183 13.9957 25.3315 13.9349 25.6839 13.862C25.7204 13.6189 25.7386 13.388 25.7386 13.1693C25.7386 12.7318 25.6778 12.3429 25.5563 12.0026C25.4469 11.6502 25.3072 11.3403 25.137 11.0729C24.4565 11.5226 23.8914 11.9965 23.4417 12.4948C23.0042 12.9931 22.6214 13.5278 22.2933 14.099C22.4148 14.1111 22.5424 14.1172 22.6761 14.1172C22.8098 14.1172 22.9374 14.1172 23.0589 14.1172ZM31.6663 19.9687L30.8643 18.8932C31.4354 18.5773 31.8182 18.2795 32.0127 18C32.2071 17.7326 32.3044 17.4531 32.3044 17.1615C32.3044 16.8455 32.2193 16.5417 32.0492 16.25C31.8912 15.9583 31.6906 15.6667 31.4476 15.375C31.2045 15.0712 30.9615 14.7552 30.7184 14.4271C30.4754 14.0868 30.2688 13.7222 30.0986 13.3333C29.9406 12.9323 29.8617 12.4887 29.8617 12.0026C29.8617 11.1033 30.0926 10.3073 30.5544 9.61458C31.0162 8.92188 31.6056 8.29601 32.3226 7.73698L35.3122 9.74219C34.7288 10.1189 34.2427 10.5321 33.8538 10.9818C33.4771 11.4314 33.2887 11.9236 33.2887 12.4583C33.2887 12.8229 33.3677 13.1632 33.5257 13.4792C33.6959 13.7951 33.8903 14.105 34.109 14.4089C34.34 14.7005 34.5344 15.0043 34.6924 15.3203C34.8625 15.6241 34.9476 15.9462 34.9476 16.2865C34.9476 17.1615 34.6498 17.8967 34.0544 18.4922C33.4589 19.0877 32.6629 19.5799 31.6663 19.9687ZM38.6107 18.2734L37.681 5.54948L41.582 4.94792L40.9075 12.4583H41.0716C41.5577 11.2552 42.135 10.2891 42.8034 9.5599C43.4839 8.83073 44.2009 8.46615 44.9544 8.46615C45.1732 8.46615 45.3919 8.5026 45.6107 8.57552C45.8902 8.9158 46.1271 9.38368 46.3216 9.97917C46.516 10.5625 46.674 11.2127 46.7956 11.9297C46.9171 12.6467 47.0082 13.3819 47.069 14.1354C47.1298 14.8767 47.1723 15.5877 47.1966 16.2682C47.2209 16.9366 47.2331 17.5139 47.2331 18L43.9518 18.2734C43.9518 17.0946 43.9396 16.0738 43.9153 15.2109C43.891 14.3481 43.8546 13.5582 43.806 12.8411C43.7695 12.112 43.7148 11.3767 43.6419 10.6354C43.411 10.7205 43.1436 10.8785 42.8398 11.1094C42.5482 11.3403 42.2504 11.717 41.9466 12.2396C41.6428 12.7622 41.3572 13.4974 41.0898 14.4453C40.8225 15.3811 40.5976 16.6024 40.4153 18.1094L38.6107 18.2734Z" fill="#47A10F"/>
<path d="M73.8464 18.2552L72.9349 7.75521L70.3828 8.01042L70.2734 6.13281L79.5885 5.8776L79.5339 7.09896L76.9818 7.35417L75.8516 18.0729L73.8464 18.2552ZM82.9065 7.71875C82.4447 7.71875 82.0437 7.55469 81.7034 7.22656C81.3753 6.88628 81.2112 6.48524 81.2112 6.02344C81.2112 5.56163 81.3753 5.16667 81.7034 4.83854C82.0437 4.49826 82.4447 4.32812 82.9065 4.32812C83.3683 4.32812 83.7633 4.49826 84.0914 4.83854C84.4317 5.16667 84.6018 5.56163 84.6018 6.02344C84.6018 6.48524 84.4317 6.88628 84.0914 7.22656C83.7633 7.55469 83.3683 7.71875 82.9065 7.71875ZM82.068 18.2734L81.1383 9.25L85.0393 8.64844L83.8727 18.1094L82.068 18.2734ZM88.4211 18.2734L87.4915 9.23177L91.3925 8.63021L91.0461 11.474H91.1737C91.5991 10.5503 92.0852 9.82118 92.6321 9.28646C93.1911 8.73958 93.7744 8.46615 94.3821 8.46615C94.613 8.46615 94.8378 8.5026 95.0566 8.57552C95.3239 8.90365 95.5487 9.34722 95.731 9.90625C95.9255 10.4653 96.0835 11.079 96.205 11.7474H96.3508C96.7762 10.7387 97.2744 9.94271 97.8456 9.35937C98.429 8.76389 99.0366 8.46615 99.6685 8.46615C99.8994 8.46615 100.124 8.5026 100.343 8.57552C100.623 8.9158 100.86 9.38368 101.054 9.97917C101.248 10.5747 101.406 11.237 101.528 11.9661C101.649 12.6953 101.741 13.4427 101.801 14.2083C101.862 14.9618 101.905 15.6788 101.929 16.3594C101.953 17.0399 101.965 17.6233 101.965 18.1094L98.6842 18.2734C98.6842 17.0946 98.672 16.0738 98.6477 15.2109C98.6356 14.3481 98.6052 13.5582 98.5566 12.8411C98.5201 12.112 98.4715 11.3767 98.4107 10.6354C98.192 10.7205 97.9489 10.8785 97.6816 11.1094C97.4264 11.3403 97.159 11.717 96.8795 12.2396C96.6121 12.7622 96.3569 13.4974 96.1139 14.4453C95.8829 15.3811 95.6824 16.6024 95.5123 18.1094L93.3977 18.2734C93.3977 17.0946 93.3856 16.0738 93.3612 15.2109C93.3491 14.3481 93.3187 13.5582 93.2701 12.8411C93.2336 12.112 93.185 11.3767 93.1243 10.6354C92.9298 10.7205 92.6989 10.8785 92.4316 11.1094C92.1764 11.3403 91.9151 11.6866 91.6477 12.1484C91.3925 12.5981 91.1494 13.1997 90.9185 13.9531C90.6998 14.7066 90.5236 15.6484 90.3899 16.7786L90.2258 18.1094L88.4211 18.2734ZM108.796 18.4375C107.848 18.4375 107.009 18.3524 106.28 18.1823C105.551 18.0122 104.943 17.7387 104.457 17.362C104.348 16.8759 104.269 16.4384 104.22 16.0495C104.184 15.6484 104.165 15.2717 104.165 14.9193C104.165 13.8377 104.33 12.8472 104.658 11.9479C104.998 11.0486 105.429 10.2769 105.952 9.63281C106.474 8.97656 107.015 8.49045 107.574 8.17448C108.073 8.36892 108.577 8.6059 109.087 8.88542C109.61 9.15278 110.09 9.46875 110.527 9.83333C110.965 10.1979 111.317 10.6111 111.585 11.0729C111.852 11.5226 111.986 12.0208 111.986 12.5677C111.986 13.1389 111.882 13.6189 111.676 14.0078C111.481 14.3845 111.123 14.6701 110.6 14.8646C110.078 15.059 109.324 15.1563 108.34 15.1563C107.927 15.1563 107.526 15.138 107.137 15.1016C106.76 15.0651 106.432 15.0165 106.152 14.9557C105.922 15.5269 105.806 16.1224 105.806 16.7422C106.086 16.7786 106.389 16.809 106.718 16.8333C107.046 16.8455 107.362 16.8516 107.665 16.8516C108.237 16.8516 108.82 16.809 109.415 16.724C110.023 16.6267 110.631 16.4688 111.238 16.25L111.785 18.0182C111.299 18.1762 110.801 18.2856 110.29 18.3464C109.78 18.4071 109.282 18.4375 108.796 18.4375ZM107.283 14.1172C107.744 14.1172 108.206 14.0929 108.668 14.0443C109.142 13.9957 109.555 13.9349 109.908 13.862C109.944 13.6189 109.962 13.388 109.962 13.1693C109.962 12.7318 109.902 12.3429 109.78 12.0026C109.671 11.6502 109.531 11.3403 109.361 11.0729C108.68 11.5226 108.115 11.9965 107.665 12.4948C107.228 12.9931 106.845 13.5278 106.517 14.099C106.639 14.1111 106.766 14.1172 106.9 14.1172C107.034 14.1172 107.161 14.1172 107.283 14.1172Z" fill="#F08B59"/>
<path d="M53.849 18.4375C52.9861 18.4375 52.2509 18.3342 51.6432 18.1276C51.0477 17.9332 50.5616 17.684 50.1849 17.3802C50.0877 16.8941 50.0148 16.4262 49.9661 15.9766C49.9297 15.5148 49.9115 15.0712 49.9115 14.6458C49.9115 13.7951 50.033 13.0052 50.276 12.276C50.5313 11.5469 50.8411 10.9028 51.2057 10.3437C51.5825 9.77257 51.9653 9.30469 52.3542 8.9401C52.7431 8.56337 53.0712 8.30816 53.3385 8.17448C53.8854 8.45399 54.4262 8.79427 54.9609 9.19531C55.4957 9.59635 55.9818 10.0642 56.4193 10.599C56.8689 11.1337 57.2274 11.7352 57.4948 12.4036C57.7622 13.072 57.8958 13.8194 57.8958 14.6458C57.8958 15.4844 57.7804 16.1832 57.5495 16.7422C57.3186 17.3012 56.9115 17.7205 56.3281 18C55.7448 18.2917 54.9184 18.4375 53.849 18.4375ZM52.8646 16.8516C53.3264 16.8516 53.7882 16.8212 54.25 16.7604C54.724 16.6875 55.1372 16.5903 55.4896 16.4687C55.5868 16.0799 55.6597 15.691 55.7083 15.3021C55.7569 14.9132 55.7812 14.5304 55.7812 14.1536C55.7812 12.9991 55.5382 11.9418 55.0521 10.9818C54.3715 11.3342 53.77 11.8264 53.2474 12.4583C52.7248 13.0781 52.3116 13.7648 52.0078 14.5182C51.7161 15.2595 51.5703 16.0009 51.5703 16.7422C51.9592 16.8151 52.3906 16.8516 52.8646 16.8516ZM60.9234 18.2734L59.9938 9.23177L63.8948 8.63021L63.4938 11.8385H63.6578C64.1318 10.8056 64.6786 9.98524 65.2984 9.3776C65.9182 8.76997 66.5684 8.46615 67.249 8.46615C67.4799 8.46615 67.7047 8.5026 67.9234 8.57552C68.203 8.9158 68.4399 9.38368 68.6344 9.97917C68.8288 10.5625 68.9868 11.2127 69.1083 11.9297C69.2299 12.6467 69.321 13.3819 69.3818 14.1354C69.4425 14.8767 69.4851 15.5877 69.5094 16.2682C69.5337 16.9366 69.5458 17.5139 69.5458 18L66.2646 18.2734C66.2646 17.0946 66.2524 16.0738 66.2281 15.2109C66.2038 14.3481 66.1674 13.5582 66.1188 12.8411C66.0823 12.112 66.0276 11.3767 65.9547 10.6354C65.7238 10.7205 65.4564 10.8785 65.1526 11.1094C64.8609 11.3403 64.5632 11.717 64.2594 12.2396C63.9556 12.7622 63.67 13.4974 63.4026 14.4453C63.1352 15.3811 62.9104 16.6024 62.7281 18.1094L60.9234 18.2734Z" fill="#DDB504"/>
</svg>
